<mxfile host="app.diagrams.net" agent="Mozilla/5.0 (Windows NT 10.0; Win64; x64) AppleWebKit/537.36 (KHTML, like Gecko) Chrome/131.0.0.0 Safari/537.36" version="26.0.3">
  <diagram name="Page-1" id="OusvcPY8qepoPVFL9ADV">
    <mxGraphModel dx="2390" dy="1287" grid="1" gridSize="10" guides="1" tooltips="1" connect="1" arrows="1" fold="1" page="1" pageScale="1" pageWidth="827" pageHeight="1169" math="0" shadow="0">
      <root>
        <mxCell id="0" />
        <mxCell id="1" parent="0" />
        <mxCell id="qmcYtgsjy7QAru-vwESY-1" value="" style="rounded=0;whiteSpace=wrap;html=1;" vertex="1" parent="1">
          <mxGeometry x="120" y="120" width="1250" height="1310" as="geometry" />
        </mxCell>
        <mxCell id="qmcYtgsjy7QAru-vwESY-2" value="&lt;font style=&quot;font-size: 26px;&quot;&gt;&lt;b style=&quot;&quot;&gt;ESPORTIFY&lt;/b&gt;&lt;/font&gt;" style="text;html=1;align=center;verticalAlign=middle;resizable=0;points=[];autosize=1;strokeColor=none;fillColor=none;" vertex="1" parent="1">
          <mxGeometry x="1190" y="130" width="170" height="40" as="geometry" />
        </mxCell>
        <mxCell id="qmcYtgsjy7QAru-vwESY-8" value="" style="edgeStyle=orthogonalEdgeStyle;rounded=0;orthogonalLoop=1;jettySize=auto;html=1;" edge="1" parent="1" source="qmcYtgsjy7QAru-vwESY-3" target="qmcYtgsjy7QAru-vwESY-7">
          <mxGeometry relative="1" as="geometry" />
        </mxCell>
        <mxCell id="qmcYtgsjy7QAru-vwESY-69" style="rounded=0;orthogonalLoop=1;jettySize=auto;html=1;exitX=1;exitY=0.3333333333333333;exitDx=0;exitDy=0;exitPerimeter=0;entryX=0;entryY=0.5;entryDx=0;entryDy=0;" edge="1" parent="1" source="qmcYtgsjy7QAru-vwESY-3" target="qmcYtgsjy7QAru-vwESY-64">
          <mxGeometry relative="1" as="geometry" />
        </mxCell>
        <mxCell id="qmcYtgsjy7QAru-vwESY-70" style="rounded=0;orthogonalLoop=1;jettySize=auto;html=1;exitX=1;exitY=0.3333333333333333;exitDx=0;exitDy=0;exitPerimeter=0;entryX=0;entryY=0.5;entryDx=0;entryDy=0;" edge="1" parent="1" source="qmcYtgsjy7QAru-vwESY-3" target="qmcYtgsjy7QAru-vwESY-65">
          <mxGeometry relative="1" as="geometry" />
        </mxCell>
        <mxCell id="qmcYtgsjy7QAru-vwESY-71" style="rounded=0;orthogonalLoop=1;jettySize=auto;html=1;exitX=1;exitY=0.3333333333333333;exitDx=0;exitDy=0;exitPerimeter=0;entryX=0;entryY=0.5;entryDx=0;entryDy=0;" edge="1" parent="1" source="qmcYtgsjy7QAru-vwESY-3" target="qmcYtgsjy7QAru-vwESY-68">
          <mxGeometry relative="1" as="geometry" />
        </mxCell>
        <mxCell id="qmcYtgsjy7QAru-vwESY-3" value="Administrateur" style="shape=umlActor;verticalLabelPosition=bottom;verticalAlign=top;html=1;outlineConnect=0;fillColor=#D49CFF;" vertex="1" parent="1">
          <mxGeometry x="50" y="1160" width="30" height="60" as="geometry" />
        </mxCell>
        <mxCell id="qmcYtgsjy7QAru-vwESY-10" value="" style="edgeStyle=orthogonalEdgeStyle;rounded=0;orthogonalLoop=1;jettySize=auto;html=1;" edge="1" parent="1" source="qmcYtgsjy7QAru-vwESY-7" target="qmcYtgsjy7QAru-vwESY-9">
          <mxGeometry relative="1" as="geometry" />
        </mxCell>
        <mxCell id="qmcYtgsjy7QAru-vwESY-57" style="rounded=0;orthogonalLoop=1;jettySize=auto;html=1;exitX=1;exitY=0.3333333333333333;exitDx=0;exitDy=0;exitPerimeter=0;entryX=0;entryY=0.5;entryDx=0;entryDy=0;" edge="1" parent="1" source="qmcYtgsjy7QAru-vwESY-7" target="qmcYtgsjy7QAru-vwESY-56">
          <mxGeometry relative="1" as="geometry" />
        </mxCell>
        <mxCell id="qmcYtgsjy7QAru-vwESY-7" value="Employé" style="shape=umlActor;verticalLabelPosition=bottom;verticalAlign=top;html=1;outlineConnect=0;fillColor=#FFF81F;" vertex="1" parent="1">
          <mxGeometry x="50" y="800" width="30" height="60" as="geometry" />
        </mxCell>
        <mxCell id="qmcYtgsjy7QAru-vwESY-12" value="" style="edgeStyle=orthogonalEdgeStyle;rounded=0;orthogonalLoop=1;jettySize=auto;html=1;" edge="1" parent="1" source="qmcYtgsjy7QAru-vwESY-9" target="qmcYtgsjy7QAru-vwESY-11">
          <mxGeometry relative="1" as="geometry" />
        </mxCell>
        <mxCell id="qmcYtgsjy7QAru-vwESY-42" style="rounded=0;orthogonalLoop=1;jettySize=auto;html=1;exitX=1;exitY=0.3333333333333333;exitDx=0;exitDy=0;exitPerimeter=0;entryX=0;entryY=0.5;entryDx=0;entryDy=0;" edge="1" parent="1" source="qmcYtgsjy7QAru-vwESY-9" target="qmcYtgsjy7QAru-vwESY-37">
          <mxGeometry relative="1" as="geometry" />
        </mxCell>
        <mxCell id="qmcYtgsjy7QAru-vwESY-48" style="rounded=0;orthogonalLoop=1;jettySize=auto;html=1;exitX=1;exitY=1;exitDx=0;exitDy=0;exitPerimeter=0;entryX=0;entryY=0.5;entryDx=0;entryDy=0;" edge="1" parent="1" source="qmcYtgsjy7QAru-vwESY-9" target="qmcYtgsjy7QAru-vwESY-46">
          <mxGeometry relative="1" as="geometry" />
        </mxCell>
        <mxCell id="qmcYtgsjy7QAru-vwESY-53" style="rounded=0;orthogonalLoop=1;jettySize=auto;html=1;exitX=1;exitY=1;exitDx=0;exitDy=0;exitPerimeter=0;entryX=0;entryY=0.5;entryDx=0;entryDy=0;" edge="1" parent="1" source="qmcYtgsjy7QAru-vwESY-9" target="qmcYtgsjy7QAru-vwESY-51">
          <mxGeometry relative="1" as="geometry" />
        </mxCell>
        <mxCell id="qmcYtgsjy7QAru-vwESY-9" value="Joueur" style="shape=umlActor;verticalLabelPosition=bottom;verticalAlign=top;html=1;outlineConnect=0;strokeColor=#000000;fillColor=#FF0303;" vertex="1" parent="1">
          <mxGeometry x="50" y="430" width="30" height="60" as="geometry" />
        </mxCell>
        <mxCell id="qmcYtgsjy7QAru-vwESY-30" style="rounded=0;orthogonalLoop=1;jettySize=auto;html=1;exitX=1;exitY=0.3333333333333333;exitDx=0;exitDy=0;exitPerimeter=0;entryX=0;entryY=0.5;entryDx=0;entryDy=0;" edge="1" parent="1" source="qmcYtgsjy7QAru-vwESY-11" target="qmcYtgsjy7QAru-vwESY-19">
          <mxGeometry relative="1" as="geometry" />
        </mxCell>
        <mxCell id="qmcYtgsjy7QAru-vwESY-31" style="rounded=0;orthogonalLoop=1;jettySize=auto;html=1;exitX=1;exitY=0.3333333333333333;exitDx=0;exitDy=0;exitPerimeter=0;entryX=0;entryY=0.5;entryDx=0;entryDy=0;" edge="1" parent="1" source="qmcYtgsjy7QAru-vwESY-11" target="qmcYtgsjy7QAru-vwESY-20">
          <mxGeometry relative="1" as="geometry" />
        </mxCell>
        <mxCell id="qmcYtgsjy7QAru-vwESY-32" style="rounded=0;orthogonalLoop=1;jettySize=auto;html=1;exitX=1;exitY=0.3333333333333333;exitDx=0;exitDy=0;exitPerimeter=0;entryX=0;entryY=0.5;entryDx=0;entryDy=0;" edge="1" parent="1" source="qmcYtgsjy7QAru-vwESY-11" target="qmcYtgsjy7QAru-vwESY-23">
          <mxGeometry relative="1" as="geometry" />
        </mxCell>
        <mxCell id="qmcYtgsjy7QAru-vwESY-11" value="Visiteur" style="shape=umlActor;verticalLabelPosition=bottom;verticalAlign=top;html=1;outlineConnect=0;fillColor=#08FF29;" vertex="1" parent="1">
          <mxGeometry x="50" y="240" width="30" height="60" as="geometry" />
        </mxCell>
        <mxCell id="qmcYtgsjy7QAru-vwESY-19" value="&lt;font style=&quot;font-size: 18px;&quot;&gt;Accueil&lt;/font&gt;" style="ellipse;whiteSpace=wrap;html=1;fillColor=#08FF29;" vertex="1" parent="1">
          <mxGeometry x="533" y="150" width="110" height="60" as="geometry" />
        </mxCell>
        <mxCell id="qmcYtgsjy7QAru-vwESY-20" value="&lt;font style=&quot;font-size: 18px;&quot;&gt;Création compte&lt;/font&gt;" style="ellipse;whiteSpace=wrap;html=1;fillColor=#08FF29;" vertex="1" parent="1">
          <mxGeometry x="518" y="220" width="140" height="70" as="geometry" />
        </mxCell>
        <mxCell id="qmcYtgsjy7QAru-vwESY-27" style="rounded=0;orthogonalLoop=1;jettySize=auto;html=1;exitX=1;exitY=0.5;exitDx=0;exitDy=0;entryX=0;entryY=0.5;entryDx=0;entryDy=0;dashed=1;" edge="1" parent="1" source="qmcYtgsjy7QAru-vwESY-23" target="qmcYtgsjy7QAru-vwESY-26">
          <mxGeometry relative="1" as="geometry" />
        </mxCell>
        <mxCell id="qmcYtgsjy7QAru-vwESY-28" value="Extend" style="edgeLabel;html=1;align=center;verticalAlign=middle;resizable=0;points=[];" vertex="1" connectable="0" parent="qmcYtgsjy7QAru-vwESY-27">
          <mxGeometry x="-0.1167" relative="1" as="geometry">
            <mxPoint x="1" as="offset" />
          </mxGeometry>
        </mxCell>
        <mxCell id="qmcYtgsjy7QAru-vwESY-23" value="&lt;font style=&quot;font-size: 18px;&quot;&gt;Vue globale événements&lt;/font&gt;" style="ellipse;whiteSpace=wrap;html=1;fillColor=#08FF29;" vertex="1" parent="1">
          <mxGeometry x="513" y="300" width="150" height="80" as="geometry" />
        </mxCell>
        <mxCell id="qmcYtgsjy7QAru-vwESY-26" value="&lt;font style=&quot;font-size: 18px;&quot;&gt;Vue détaillé événements&lt;/font&gt;" style="ellipse;whiteSpace=wrap;html=1;fillColor=#08FF29;" vertex="1" parent="1">
          <mxGeometry x="783" y="300" width="150" height="80" as="geometry" />
        </mxCell>
        <mxCell id="qmcYtgsjy7QAru-vwESY-76" style="rounded=0;orthogonalLoop=1;jettySize=auto;html=1;exitX=1;exitY=0;exitDx=0;exitDy=0;entryX=0;entryY=1;entryDx=0;entryDy=0;edgeStyle=orthogonalEdgeStyle;dashed=1;dashPattern=8 8;" edge="1" parent="1" source="qmcYtgsjy7QAru-vwESY-34" target="qmcYtgsjy7QAru-vwESY-37">
          <mxGeometry relative="1" as="geometry">
            <Array as="points">
              <mxPoint x="310" y="649" />
              <mxPoint x="310" y="484" />
            </Array>
          </mxGeometry>
        </mxCell>
        <mxCell id="qmcYtgsjy7QAru-vwESY-81" value="Included" style="edgeLabel;html=1;align=center;verticalAlign=middle;resizable=0;points=[];" vertex="1" connectable="0" parent="qmcYtgsjy7QAru-vwESY-76">
          <mxGeometry x="-0.1905" y="-1" relative="1" as="geometry">
            <mxPoint as="offset" />
          </mxGeometry>
        </mxCell>
        <mxCell id="qmcYtgsjy7QAru-vwESY-77" style="edgeStyle=orthogonalEdgeStyle;rounded=0;orthogonalLoop=1;jettySize=auto;html=1;exitX=1;exitY=0;exitDx=0;exitDy=0;dashed=1;dashPattern=8 8;" edge="1" parent="1" source="qmcYtgsjy7QAru-vwESY-34">
          <mxGeometry relative="1" as="geometry">
            <mxPoint x="490" y="580" as="targetPoint" />
            <Array as="points">
              <mxPoint x="310" y="649" />
              <mxPoint x="310" y="580" />
            </Array>
          </mxGeometry>
        </mxCell>
        <mxCell id="qmcYtgsjy7QAru-vwESY-80" value="Included" style="edgeLabel;html=1;align=center;verticalAlign=middle;resizable=0;points=[];" vertex="1" connectable="0" parent="qmcYtgsjy7QAru-vwESY-77">
          <mxGeometry x="0.2873" relative="1" as="geometry">
            <mxPoint as="offset" />
          </mxGeometry>
        </mxCell>
        <mxCell id="qmcYtgsjy7QAru-vwESY-78" style="edgeStyle=orthogonalEdgeStyle;rounded=0;orthogonalLoop=1;jettySize=auto;html=1;exitX=1.01;exitY=0.448;exitDx=0;exitDy=0;entryX=0;entryY=0.5;entryDx=0;entryDy=0;dashed=1;dashPattern=8 8;exitPerimeter=0;" edge="1" parent="1" source="qmcYtgsjy7QAru-vwESY-34" target="qmcYtgsjy7QAru-vwESY-51">
          <mxGeometry relative="1" as="geometry" />
        </mxCell>
        <mxCell id="qmcYtgsjy7QAru-vwESY-79" value="Included" style="edgeLabel;html=1;align=center;verticalAlign=middle;resizable=0;points=[];" vertex="1" connectable="0" parent="qmcYtgsjy7QAru-vwESY-78">
          <mxGeometry x="0.3764" y="6" relative="1" as="geometry">
            <mxPoint as="offset" />
          </mxGeometry>
        </mxCell>
        <mxCell id="qmcYtgsjy7QAru-vwESY-82" style="edgeStyle=orthogonalEdgeStyle;rounded=0;orthogonalLoop=1;jettySize=auto;html=1;entryX=0;entryY=0.5;entryDx=0;entryDy=0;dashed=1;dashPattern=8 8;" edge="1" parent="1" target="qmcYtgsjy7QAru-vwESY-56">
          <mxGeometry relative="1" as="geometry">
            <mxPoint x="260" y="670" as="sourcePoint" />
            <Array as="points">
              <mxPoint x="320" y="670" />
              <mxPoint x="320" y="830" />
            </Array>
          </mxGeometry>
        </mxCell>
        <mxCell id="qmcYtgsjy7QAru-vwESY-83" value="Included" style="edgeLabel;html=1;align=center;verticalAlign=middle;resizable=0;points=[];" vertex="1" connectable="0" parent="qmcYtgsjy7QAru-vwESY-82">
          <mxGeometry x="-0.3267" y="-3" relative="1" as="geometry">
            <mxPoint as="offset" />
          </mxGeometry>
        </mxCell>
        <mxCell id="qmcYtgsjy7QAru-vwESY-84" style="edgeStyle=orthogonalEdgeStyle;rounded=0;orthogonalLoop=1;jettySize=auto;html=1;exitX=1;exitY=1;exitDx=0;exitDy=0;entryX=0;entryY=0;entryDx=0;entryDy=0;dashed=1;dashPattern=8 8;" edge="1" parent="1" source="qmcYtgsjy7QAru-vwESY-34" target="qmcYtgsjy7QAru-vwESY-64">
          <mxGeometry relative="1" as="geometry">
            <Array as="points">
              <mxPoint x="310" y="691" />
              <mxPoint x="310" y="1005" />
            </Array>
          </mxGeometry>
        </mxCell>
        <mxCell id="qmcYtgsjy7QAru-vwESY-87" value="Included" style="edgeLabel;html=1;align=center;verticalAlign=middle;resizable=0;points=[];" vertex="1" connectable="0" parent="qmcYtgsjy7QAru-vwESY-84">
          <mxGeometry x="0.4636" y="-3" relative="1" as="geometry">
            <mxPoint as="offset" />
          </mxGeometry>
        </mxCell>
        <mxCell id="qmcYtgsjy7QAru-vwESY-85" style="edgeStyle=orthogonalEdgeStyle;rounded=0;orthogonalLoop=1;jettySize=auto;html=1;exitX=1;exitY=1;exitDx=0;exitDy=0;entryX=0;entryY=0;entryDx=0;entryDy=0;dashed=1;dashPattern=8 8;" edge="1" parent="1" source="qmcYtgsjy7QAru-vwESY-34" target="qmcYtgsjy7QAru-vwESY-65">
          <mxGeometry relative="1" as="geometry">
            <Array as="points">
              <mxPoint x="310" y="691" />
              <mxPoint x="310" y="1145" />
            </Array>
          </mxGeometry>
        </mxCell>
        <mxCell id="qmcYtgsjy7QAru-vwESY-88" value="Included" style="edgeLabel;html=1;align=center;verticalAlign=middle;resizable=0;points=[];" vertex="1" connectable="0" parent="qmcYtgsjy7QAru-vwESY-85">
          <mxGeometry x="0.579" y="-3" relative="1" as="geometry">
            <mxPoint as="offset" />
          </mxGeometry>
        </mxCell>
        <mxCell id="qmcYtgsjy7QAru-vwESY-86" style="edgeStyle=orthogonalEdgeStyle;rounded=0;orthogonalLoop=1;jettySize=auto;html=1;exitX=1;exitY=1;exitDx=0;exitDy=0;entryX=0;entryY=0;entryDx=0;entryDy=0;dashed=1;dashPattern=8 8;" edge="1" parent="1" source="qmcYtgsjy7QAru-vwESY-34" target="qmcYtgsjy7QAru-vwESY-68">
          <mxGeometry relative="1" as="geometry">
            <Array as="points">
              <mxPoint x="310" y="691" />
              <mxPoint x="310" y="1280" />
            </Array>
          </mxGeometry>
        </mxCell>
        <mxCell id="qmcYtgsjy7QAru-vwESY-89" value="Included" style="edgeLabel;html=1;align=center;verticalAlign=middle;resizable=0;points=[];" vertex="1" connectable="0" parent="qmcYtgsjy7QAru-vwESY-86">
          <mxGeometry x="0.6584" y="-1" relative="1" as="geometry">
            <mxPoint as="offset" />
          </mxGeometry>
        </mxCell>
        <mxCell id="qmcYtgsjy7QAru-vwESY-34" value="&lt;font style=&quot;font-size: 24px;&quot;&gt;Connexion&lt;/font&gt;" style="ellipse;whiteSpace=wrap;html=1;" vertex="1" parent="1">
          <mxGeometry x="130" y="610" width="140" height="90" as="geometry" />
        </mxCell>
        <mxCell id="qmcYtgsjy7QAru-vwESY-35" value="&lt;font style=&quot;font-size: 18px;&quot;&gt;Voir historique événements favoris&lt;/font&gt;" style="ellipse;whiteSpace=wrap;html=1;fillColor=light-dark(#FF0303,#FF8F8F);" vertex="1" parent="1">
          <mxGeometry x="1088" y="415" width="180" height="90" as="geometry" />
        </mxCell>
        <mxCell id="qmcYtgsjy7QAru-vwESY-36" value="&lt;font style=&quot;font-size: 18px;&quot;&gt;Voir historique scores personnel&lt;/font&gt;" style="ellipse;whiteSpace=wrap;html=1;fillColor=light-dark(#FF0303,#FF8F8F);" vertex="1" parent="1">
          <mxGeometry x="1098" y="520" width="160" height="90" as="geometry" />
        </mxCell>
        <mxCell id="qmcYtgsjy7QAru-vwESY-38" style="rounded=0;orthogonalLoop=1;jettySize=auto;html=1;exitX=1;exitY=0.5;exitDx=0;exitDy=0;entryX=0;entryY=0.5;entryDx=0;entryDy=0;dashed=1;" edge="1" parent="1" source="qmcYtgsjy7QAru-vwESY-37" target="qmcYtgsjy7QAru-vwESY-35">
          <mxGeometry relative="1" as="geometry" />
        </mxCell>
        <mxCell id="qmcYtgsjy7QAru-vwESY-39" value="Extend" style="edgeLabel;html=1;align=center;verticalAlign=middle;resizable=0;points=[];" vertex="1" connectable="0" parent="qmcYtgsjy7QAru-vwESY-38">
          <mxGeometry x="-0.0145" y="-1" relative="1" as="geometry">
            <mxPoint as="offset" />
          </mxGeometry>
        </mxCell>
        <mxCell id="qmcYtgsjy7QAru-vwESY-40" style="rounded=0;orthogonalLoop=1;jettySize=auto;html=1;exitX=1;exitY=0.5;exitDx=0;exitDy=0;entryX=0;entryY=0.5;entryDx=0;entryDy=0;dashed=1;" edge="1" parent="1" source="qmcYtgsjy7QAru-vwESY-37" target="qmcYtgsjy7QAru-vwESY-36">
          <mxGeometry relative="1" as="geometry" />
        </mxCell>
        <mxCell id="qmcYtgsjy7QAru-vwESY-41" value="Extend" style="edgeLabel;html=1;align=center;verticalAlign=middle;resizable=0;points=[];" vertex="1" connectable="0" parent="qmcYtgsjy7QAru-vwESY-40">
          <mxGeometry x="0.0154" y="2" relative="1" as="geometry">
            <mxPoint as="offset" />
          </mxGeometry>
        </mxCell>
        <mxCell id="qmcYtgsjy7QAru-vwESY-44" style="rounded=0;orthogonalLoop=1;jettySize=auto;html=1;exitX=1;exitY=0.5;exitDx=0;exitDy=0;entryX=0;entryY=0.5;entryDx=0;entryDy=0;dashed=1;" edge="1" parent="1" source="qmcYtgsjy7QAru-vwESY-37" target="qmcYtgsjy7QAru-vwESY-43">
          <mxGeometry relative="1" as="geometry" />
        </mxCell>
        <mxCell id="qmcYtgsjy7QAru-vwESY-45" value="Extend" style="edgeLabel;html=1;align=center;verticalAlign=middle;resizable=0;points=[];" vertex="1" connectable="0" parent="qmcYtgsjy7QAru-vwESY-44">
          <mxGeometry x="0.0194" y="3" relative="1" as="geometry">
            <mxPoint y="-1" as="offset" />
          </mxGeometry>
        </mxCell>
        <mxCell id="qmcYtgsjy7QAru-vwESY-37" value="&lt;font style=&quot;font-size: 18px;&quot;&gt;Espace personnel&lt;/font&gt;" style="ellipse;whiteSpace=wrap;html=1;fillColor=#FF0303;" vertex="1" parent="1">
          <mxGeometry x="788" y="425" width="140" height="70" as="geometry" />
        </mxCell>
        <mxCell id="qmcYtgsjy7QAru-vwESY-43" value="&lt;font style=&quot;font-size: 18px;&quot;&gt;Réinitialiser mot de passe&lt;/font&gt;" style="ellipse;whiteSpace=wrap;html=1;fillColor=#FF0303;" vertex="1" parent="1">
          <mxGeometry x="1103" y="620" width="150" height="90" as="geometry" />
        </mxCell>
        <mxCell id="qmcYtgsjy7QAru-vwESY-49" style="rounded=0;orthogonalLoop=1;jettySize=auto;html=1;exitX=1;exitY=0.5;exitDx=0;exitDy=0;entryX=0;entryY=0.5;entryDx=0;entryDy=0;dashed=1;" edge="1" parent="1" source="qmcYtgsjy7QAru-vwESY-46" target="qmcYtgsjy7QAru-vwESY-47">
          <mxGeometry relative="1" as="geometry" />
        </mxCell>
        <mxCell id="qmcYtgsjy7QAru-vwESY-50" value="Extend" style="edgeLabel;html=1;align=center;verticalAlign=middle;resizable=0;points=[];" vertex="1" connectable="0" parent="qmcYtgsjy7QAru-vwESY-49">
          <mxGeometry x="-0.0081" relative="1" as="geometry">
            <mxPoint x="-1" y="1" as="offset" />
          </mxGeometry>
        </mxCell>
        <mxCell id="qmcYtgsjy7QAru-vwESY-46" value="&lt;font style=&quot;font-size: 18px;&quot;&gt;Inscription / Désinscription à un événement&lt;/font&gt;" style="ellipse;whiteSpace=wrap;html=1;fillColor=#FF0303;" vertex="1" parent="1">
          <mxGeometry x="500" y="532.5" width="176" height="90" as="geometry" />
        </mxCell>
        <mxCell id="qmcYtgsjy7QAru-vwESY-47" value="&lt;font style=&quot;font-size: 18px;&quot;&gt;Rejoindre événement&lt;/font&gt;" style="ellipse;whiteSpace=wrap;html=1;fillColor=#FF0303;" vertex="1" parent="1">
          <mxGeometry x="789" y="530" width="138" height="95" as="geometry" />
        </mxCell>
        <mxCell id="qmcYtgsjy7QAru-vwESY-54" style="rounded=0;orthogonalLoop=1;jettySize=auto;html=1;exitX=1;exitY=0.5;exitDx=0;exitDy=0;entryX=0;entryY=0.5;entryDx=0;entryDy=0;dashed=1;" edge="1" parent="1" source="qmcYtgsjy7QAru-vwESY-51" target="qmcYtgsjy7QAru-vwESY-52">
          <mxGeometry relative="1" as="geometry" />
        </mxCell>
        <mxCell id="qmcYtgsjy7QAru-vwESY-55" value="Extend" style="edgeLabel;html=1;align=center;verticalAlign=middle;resizable=0;points=[];" vertex="1" connectable="0" parent="qmcYtgsjy7QAru-vwESY-54">
          <mxGeometry x="-0.0361" y="-3" relative="1" as="geometry">
            <mxPoint as="offset" />
          </mxGeometry>
        </mxCell>
        <mxCell id="qmcYtgsjy7QAru-vwESY-51" value="&lt;font style=&quot;font-size: 18px;&quot;&gt;Créer un événement&lt;/font&gt;" style="ellipse;whiteSpace=wrap;html=1;fillColor=#FF0303;" vertex="1" parent="1">
          <mxGeometry x="510" y="645" width="156" height="90" as="geometry" />
        </mxCell>
        <mxCell id="qmcYtgsjy7QAru-vwESY-52" value="&lt;font style=&quot;font-size: 18px;&quot;&gt;Modifier l&#39;événement&lt;/font&gt;" style="ellipse;whiteSpace=wrap;html=1;fillColor=#FF0303;" vertex="1" parent="1">
          <mxGeometry x="780" y="645" width="156" height="90" as="geometry" />
        </mxCell>
        <mxCell id="qmcYtgsjy7QAru-vwESY-60" style="rounded=0;orthogonalLoop=1;jettySize=auto;html=1;exitX=1;exitY=0.5;exitDx=0;exitDy=0;entryX=0;entryY=0.5;entryDx=0;entryDy=0;dashed=1;" edge="1" parent="1" source="qmcYtgsjy7QAru-vwESY-56" target="qmcYtgsjy7QAru-vwESY-58">
          <mxGeometry relative="1" as="geometry" />
        </mxCell>
        <mxCell id="qmcYtgsjy7QAru-vwESY-63" value="Extend" style="edgeLabel;html=1;align=center;verticalAlign=middle;resizable=0;points=[];" vertex="1" connectable="0" parent="qmcYtgsjy7QAru-vwESY-60">
          <mxGeometry x="0.0694" y="-1" relative="1" as="geometry">
            <mxPoint x="1" as="offset" />
          </mxGeometry>
        </mxCell>
        <mxCell id="qmcYtgsjy7QAru-vwESY-61" style="rounded=0;orthogonalLoop=1;jettySize=auto;html=1;exitX=1;exitY=0.5;exitDx=0;exitDy=0;entryX=0;entryY=0.5;entryDx=0;entryDy=0;dashed=1;" edge="1" parent="1" source="qmcYtgsjy7QAru-vwESY-56" target="qmcYtgsjy7QAru-vwESY-59">
          <mxGeometry relative="1" as="geometry" />
        </mxCell>
        <mxCell id="qmcYtgsjy7QAru-vwESY-62" value="Extend" style="edgeLabel;html=1;align=center;verticalAlign=middle;resizable=0;points=[];" vertex="1" connectable="0" parent="qmcYtgsjy7QAru-vwESY-61">
          <mxGeometry x="-0.032" y="1" relative="1" as="geometry">
            <mxPoint as="offset" />
          </mxGeometry>
        </mxCell>
        <mxCell id="qmcYtgsjy7QAru-vwESY-56" value="&lt;font style=&quot;font-size: 18px;&quot;&gt;Gestion de ses événements&lt;/font&gt;" style="ellipse;whiteSpace=wrap;html=1;fillColor=#FFF81F;" vertex="1" parent="1">
          <mxGeometry x="500" y="785" width="176" height="90" as="geometry" />
        </mxCell>
        <mxCell id="qmcYtgsjy7QAru-vwESY-58" value="&lt;font style=&quot;font-size: 18px;&quot;&gt;Gestion des joueurs&lt;/font&gt;" style="ellipse;whiteSpace=wrap;html=1;fillColor=#FFF81F;" vertex="1" parent="1">
          <mxGeometry x="770" y="792.5" width="176" height="75" as="geometry" />
        </mxCell>
        <mxCell id="qmcYtgsjy7QAru-vwESY-59" value="&lt;font style=&quot;font-size: 18px;&quot;&gt;Démarrer l&#39;événement&lt;/font&gt;" style="ellipse;whiteSpace=wrap;html=1;fillColor=#FFF81F;" vertex="1" parent="1">
          <mxGeometry x="770" y="890" width="176" height="75" as="geometry" />
        </mxCell>
        <mxCell id="qmcYtgsjy7QAru-vwESY-73" style="rounded=0;orthogonalLoop=1;jettySize=auto;html=1;exitX=1;exitY=0.5;exitDx=0;exitDy=0;entryX=0;entryY=0.5;entryDx=0;entryDy=0;dashed=1;" edge="1" parent="1" source="qmcYtgsjy7QAru-vwESY-64" target="qmcYtgsjy7QAru-vwESY-72">
          <mxGeometry relative="1" as="geometry" />
        </mxCell>
        <mxCell id="qmcYtgsjy7QAru-vwESY-75" value="Extend" style="edgeLabel;html=1;align=center;verticalAlign=middle;resizable=0;points=[];" vertex="1" connectable="0" parent="qmcYtgsjy7QAru-vwESY-73">
          <mxGeometry x="-0.1377" y="-2" relative="1" as="geometry">
            <mxPoint as="offset" />
          </mxGeometry>
        </mxCell>
        <mxCell id="qmcYtgsjy7QAru-vwESY-64" value="&lt;font style=&quot;font-size: 18px;&quot;&gt;Gestion de tous les&amp;nbsp; événements&lt;/font&gt;" style="ellipse;whiteSpace=wrap;html=1;fillColor=#D49CFF;" vertex="1" parent="1">
          <mxGeometry x="500" y="990" width="183" height="105" as="geometry" />
        </mxCell>
        <mxCell id="qmcYtgsjy7QAru-vwESY-65" value="&lt;font style=&quot;font-size: 18px;&quot;&gt;Gestion des droits joueurs / organisateurs&lt;/font&gt;" style="ellipse;whiteSpace=wrap;html=1;fillColor=#D49CFF;" vertex="1" parent="1">
          <mxGeometry x="500" y="1130" width="183" height="105" as="geometry" />
        </mxCell>
        <mxCell id="qmcYtgsjy7QAru-vwESY-68" value="&lt;font style=&quot;font-size: 18px;&quot;&gt;Tableau de bord&lt;/font&gt;" style="ellipse;whiteSpace=wrap;html=1;fillColor=#D49CFF;" vertex="1" parent="1">
          <mxGeometry x="500" y="1270" width="183" height="70" as="geometry" />
        </mxCell>
        <mxCell id="qmcYtgsjy7QAru-vwESY-72" value="&lt;font style=&quot;font-size: 18px;&quot;&gt;Modération des événements&lt;/font&gt;" style="ellipse;whiteSpace=wrap;html=1;fillColor=#D49CFF;" vertex="1" parent="1">
          <mxGeometry x="766.5" y="995" width="183" height="95" as="geometry" />
        </mxCell>
      </root>
    </mxGraphModel>
  </diagram>
</mxfile>
